<svg width="19" height="18" viewBox="0 0 19 18" fill="none" xmlns="http://www.w3.org/2000/svg">
<rect width="18" height="18" rx="9" fill="white"/>
<path d="M6.152 14V5.48H6.572V13.616H11.792V14H6.152Z" fill="black"/>
<path d="M13.32 10.792C13.32 11.192 13.22 11.56 13.02 11.896C12.82 12.232 12.552 12.5 12.216 12.7C11.888 12.9 11.524 13 11.124 13H7.152V4.48H11.016C11.416 4.48 11.76 4.588 12.048 4.804C12.344 5.012 12.568 5.284 12.72 5.62C12.88 5.948 12.96 6.292 12.96 6.652C12.96 7.084 12.848 7.48 12.624 7.84C12.408 8.2 12.112 8.464 11.736 8.632C12.224 8.776 12.608 9.048 12.888 9.448C13.176 9.848 13.32 10.296 13.32 10.792ZM7.572 4.864V8.512H10.872C11.2 8.512 11.488 8.424 11.736 8.248C11.992 8.072 12.192 7.844 12.336 7.564C12.48 7.284 12.552 6.992 12.552 6.688C12.552 6.368 12.484 6.068 12.348 5.788C12.212 5.508 12.02 5.284 11.772 5.116C11.532 4.948 11.256 4.864 10.944 4.864H7.572ZM12.912 10.756C12.912 10.428 12.836 10.124 12.684 9.844C12.54 9.556 12.336 9.324 12.072 9.148C11.816 8.972 11.528 8.884 11.208 8.884H7.572V12.616H11.124C11.452 12.616 11.752 12.528 12.024 12.352C12.296 12.168 12.512 11.936 12.672 11.656C12.832 11.368 12.912 11.068 12.912 10.756Z" fill="black"/>
</svg>
