<svg width="70" height="70" viewBox="0 0 70 70" fill="none" xmlns="http://www.w3.org/2000/svg">
<path d="M0 0L6.29685 62.8149L34.9952 70L63.5791 62.8149L70 0H0ZM56.7671 14.9002L56.3091 18.8714L56.1469 20.512H22.621L23.4033 28.4375H55.3741L55.0593 30.482L53.0367 50.8594L52.8745 52.2224L35.0334 56.5637V56.5889H34.9189L34.8903 56.5974V56.5889H34.8807L16.887 52.2139L15.7994 40.0481H24.4909L25.1111 46.2067L34.8807 48.5373H34.9189L44.6504 46.2151L45.738 36.2368H34.8903V36.2284H15.3414L13.1661 14.9002L13.004 12.8558H56.9197L56.7671 14.9002Z" fill="white"/>
</svg>
