<svg width="50" height="50" viewBox="0 0 50 50" fill="none" xmlns="http://www.w3.org/2000/svg">
<path d="M25 50C21.6146 50 18.3757 49.3408 15.2832 48.0225C12.1908 46.7041 9.52962 44.93 7.2998 42.7002C5.06999 40.4704 3.2959 37.8092 1.97754 34.7168C0.65918 31.6243 0 28.3854 0 25C0 21.6146 0.65918 18.3757 1.97754 15.2832C3.2959 12.1908 5.06999 9.52962 7.2998 7.2998C9.52962 5.06999 12.1908 3.2959 15.2832 1.97754C18.3757 0.65918 21.6146 0 25 0C28.3854 0 31.6243 0.65918 34.7168 1.97754C37.8092 3.2959 40.4704 5.06999 42.7002 7.2998C44.93 9.52962 46.7041 12.1908 48.0225 15.2832C49.3408 18.3757 50 21.6146 50 25C50 28.3854 49.3408 31.6243 48.0225 34.7168C46.7041 37.8092 44.93 40.4704 42.7002 42.7002C40.4704 44.93 37.8092 46.7041 34.7168 48.0225C31.6243 49.3408 28.3854 50 25 50ZM37.5 15.625C37.5 14.7786 37.1989 14.0462 36.5967 13.4277C35.9945 12.8092 35.2539 12.5 34.375 12.5H15.625C14.7786 12.5 14.0462 12.8092 13.4277 13.4277C12.8092 14.0462 12.5 14.7786 12.5 15.625V18.75H18.0664C19.9544 16.6667 22.2656 15.625 25 15.625C27.7344 15.625 30.0456 16.6667 31.9336 18.75H37.5V15.625ZM18.75 25C18.75 26.7253 19.3604 28.1982 20.5811 29.4189C21.8018 30.6396 23.2747 31.25 25 31.25C26.7253 31.25 28.1982 30.6396 29.4189 29.4189C30.6396 28.1982 31.25 26.7253 31.25 25C31.25 23.2747 30.6396 21.8018 29.4189 20.5811C28.1982 19.3604 26.7253 18.75 25 18.75C23.2747 18.75 21.8018 19.3604 20.5811 20.5811C19.3604 21.8018 18.75 23.2747 18.75 25ZM37.5 21.875H33.7891C34.1797 22.9492 34.375 23.9909 34.375 25C34.375 27.6042 33.4635 29.8177 31.6406 31.6406C29.8177 33.4635 27.6042 34.375 25 34.375C22.3958 34.375 20.1823 33.4635 18.3594 31.6406C16.5365 29.8177 15.625 27.6042 15.625 25C15.625 23.9909 15.8203 22.9492 16.2109 21.875H12.5V34.375C12.5 35.2539 12.8011 35.9945 13.4033 36.5967C14.0055 37.1989 14.7461 37.5 15.625 37.5H34.375C35.2539 37.5 35.9945 37.1989 36.5967 36.5967C37.1989 35.9945 37.5 35.2539 37.5 34.375V21.875Z" fill="white"/>
</svg>
