<svg width="70" height="70" viewBox="0 0 70 70" fill="none" xmlns="http://www.w3.org/2000/svg">
<path d="M0 0H70V70H0V0ZM64.2687 53.3094C63.7569 50.1069 61.67 47.4294 55.5078 44.9247C53.3662 43.9228 50.9731 43.2163 50.2666 41.5975C50.0041 40.6394 49.9581 40.1166 50.1287 39.5456C50.5728 37.6534 52.7953 37.0956 54.5497 37.6206C55.6894 37.9728 56.7372 38.8391 57.3978 40.2412C60.4166 38.2703 60.4166 38.2703 62.5144 36.96C61.7291 35.7416 61.3419 35.2056 60.8059 34.6937C58.9706 32.6309 56.5228 31.5831 52.5459 31.675L50.4831 31.9375C48.5122 32.4166 46.6331 33.4644 45.4934 34.8666C42.1772 38.6269 43.1353 45.1894 47.1559 47.9128C51.1328 50.8856 56.9537 51.5353 57.7062 54.3397C58.4019 57.7588 55.1666 58.8525 51.9641 58.4522C49.6059 57.9272 48.2956 56.7438 46.8475 54.5563L41.5144 57.6209C42.1181 59.0231 42.8247 59.6269 43.8725 60.8563C48.9431 65.9728 61.635 65.7103 63.9122 57.9272C63.9909 57.6647 64.6078 55.8644 64.1288 53.1191L64.2687 53.3094ZM38.0647 32.1738H31.5131C31.5131 37.8241 31.4781 43.4416 31.4781 49.105C31.4781 52.6947 31.6597 55.9978 31.08 57.0128C30.1109 59.0187 27.6391 58.7672 26.5103 58.415C25.3597 57.8463 24.7669 57.0588 24.0953 55.9191C23.9006 55.6106 23.765 55.3503 23.7191 55.3503L18.3991 58.6316C19.2872 60.4669 20.5866 62.0506 22.2622 63.0525C24.7581 64.5444 28.1072 65.0234 31.6159 64.2381C33.8953 63.5775 35.8662 62.2212 36.89 60.1256C38.3819 57.4131 38.0625 54.0881 38.0516 50.3606C38.0866 44.3669 38.0516 38.3753 38.0516 32.3356L38.0647 32.1738Z" fill="white"/>
</svg>
