<svg width="295" height="73" viewBox="0 0 295 73" fill="none" xmlns="http://www.w3.org/2000/svg">
<path d="M34.0938 0.796875C35.1875 0.796875 36.0938 1.0625 36.8125 1.59375C37.5625 2.125 37.9375 3.09375 37.9375 4.5C37.9375 5.46875 37.7344 6.625 37.3281 7.96875C36.9531 9.3125 36.4219 10.7812 35.7344 12.375C35.0781 13.9375 34.2969 15.5938 33.3906 17.3438C32.4844 19.0625 31.5 20.7812 30.4375 22.5C29.4062 24.2188 28.3125 25.8906 27.1562 27.5156C26.0312 29.1406 24.9062 30.6406 23.7812 32.0156C21.5312 34.7969 19.5781 37.1406 17.9219 39.0469C16.2969 40.9531 14.8906 42.5781 13.7031 43.9219C12.5156 45.2344 11.5156 46.3125 10.7031 47.1562C9.89062 47.9688 9.17188 48.6719 8.54688 49.2656C7.92188 49.8594 7.34375 50.4062 6.8125 50.9062C6.28125 51.375 5.73438 51.9062 5.17188 52.5C4.92188 53.6875 4.79688 54.8281 4.79688 55.9219C4.82812 56.9844 4.84375 57.9688 4.84375 58.875C4.84375 61.5938 5.28125 63.6094 6.15625 64.9219C7.03125 66.2344 8.26562 66.8906 9.85938 66.8906C10.9219 66.8906 11.9844 66.625 13.0469 66.0938C14.1406 65.5312 15.2188 64.8125 16.2812 63.9375C17.3438 63.0625 18.375 62.0781 19.375 60.9844C20.375 59.8594 21.3125 58.7344 22.1875 57.6094C23.0938 56.4531 23.9062 55.3438 24.625 54.2812C25.3438 53.2188 25.9688 52.2969 26.5 51.5156L28.2344 52.8281C28.1406 52.9531 27.8281 53.4531 27.2969 54.3281C26.7969 55.1719 26.125 56.2031 25.2812 57.4219C24.4375 58.6406 23.4375 59.9531 22.2812 61.3594C21.125 62.7344 19.875 64.0156 18.5312 65.2031C17.1875 66.3906 15.7656 67.375 14.2656 68.1562C12.7969 68.9375 11.2969 69.3281 9.76562 69.3281C8.48438 69.3281 7.25 69.0938 6.0625 68.625C4.90625 68.125 3.875 67.3594 2.96875 66.3281C2.09375 65.2656 1.375 63.9219 0.8125 62.2969C0.28125 60.6719 0.015625 58.7188 0.015625 56.4375C0.015625 53.5938 0.34375 50.625 1 47.5312C1.6875 44.4062 2.60938 41.2812 3.76562 38.1562C4.92188 35 6.28125 31.8906 7.84375 28.8281C9.40625 25.7656 11.0625 22.8594 12.8125 20.1094C14.5938 17.3281 16.4375 14.7656 18.3438 12.4219C20.2812 10.0469 22.1719 8 24.0156 6.28125C25.8906 4.5625 27.6875 3.21875 29.4062 2.25C31.125 1.28125 32.6875 0.796875 34.0938 0.796875ZM6.01562 48.3281C8.67188 45.5781 11.2344 42.7969 13.7031 39.9844C16.2031 37.1406 18.5312 34.3438 20.6875 31.5938C22.875 28.8125 24.875 26.125 26.6875 23.5312C28.5 20.9062 30.0469 18.4375 31.3281 16.125C32.6094 13.8125 33.6094 11.7031 34.3281 9.79688C35.0469 7.89062 35.4062 6.25 35.4062 4.875C35.4062 4.625 35.2812 4.29688 35.0312 3.89062C34.7812 3.45313 34.4844 3.23438 34.1406 3.23438C33.1719 3.23438 31.8906 3.875 30.2969 5.15625C28.7031 6.4375 26.9688 8.1875 25.0938 10.4062C23.25 12.5938 21.3281 15.1562 19.3281 18.0938C17.3594 21.0312 15.5 24.1719 13.75 27.5156C12 30.8594 10.4375 34.3125 9.0625 37.875C7.6875 41.4375 6.67188 44.9219 6.01562 48.3281ZM30.0625 58.3125C30 58.6875 29.9531 59.0625 29.9219 59.4375C29.8906 59.8125 29.875 60.1875 29.875 60.5625C29.875 61.6875 30.0312 62.7656 30.3438 63.7969C30.6875 64.7969 31.1719 65.6875 31.7969 66.4688C32.4531 67.2188 33.25 67.8125 34.1875 68.25C35.1562 68.6875 36.25 68.9062 37.4688 68.9062C41.5625 68.9062 45.5156 67.5156 49.3281 64.7344C53.1406 61.9531 56.9375 57.5469 60.7188 51.5156L62.3125 52.9219C60.25 56.3594 58.1562 59.2656 56.0312 61.6406C53.9062 63.9844 51.7812 65.8906 49.6562 67.3594C47.5625 68.8281 45.5 69.8906 43.4688 70.5469C41.4375 71.2031 39.5 71.5312 37.6562 71.5312C36.3125 71.5312 34.8906 71.3438 33.3906 70.9688C31.8906 70.5938 30.5 69.9688 29.2188 69.0938C27.9688 68.2188 26.9375 67.0469 26.125 65.5781C25.2812 64.1094 24.8594 62.2812 24.8594 60.0938C24.8594 57.75 25.2656 55.5 26.0781 53.3438C26.8594 51.1562 27.8906 49.125 29.1719 47.25C30.4531 45.375 31.9219 43.6719 33.5781 42.1406C35.2344 40.5781 36.9062 39.25 38.5938 38.1562C40.3125 37.0625 41.9844 36.2188 43.6094 35.625C45.2344 35 46.6719 34.6875 47.9219 34.6875C48.7344 34.6875 49.5625 34.8125 50.4062 35.0625C51.25 35.3125 52 35.7031 52.6562 36.2344C53.3438 36.7656 53.8906 37.4688 54.2969 38.3438C54.7344 39.2188 54.9531 40.2656 54.9531 41.4844C54.9531 43.1406 54.5625 44.7031 53.7812 46.1719C53.0312 47.6094 52.0156 48.9531 50.7344 50.2031C49.4531 51.4219 47.9688 52.5312 46.2812 53.5312C44.5938 54.5 42.8281 55.3281 40.9844 56.0156C39.1406 56.7031 37.2812 57.25 35.4062 57.6562C33.5312 58.0625 31.75 58.2812 30.0625 58.3125ZM30.4375 56.2969C32.5312 56.0781 34.5 55.6406 36.3438 54.9844C38.1875 54.3281 39.875 53.5312 41.4062 52.5938C42.9375 51.625 44.2969 50.5781 45.4844 49.4531C46.7031 48.3281 47.7188 47.1875 48.5312 46.0312C49.3438 44.875 49.9688 43.7656 50.4062 42.7031C50.8438 41.6406 51.0625 40.6875 51.0625 39.8438C51.0625 39 50.8281 38.3281 50.3594 37.8281C49.9219 37.3281 49.3906 37.0781 48.7656 37.0781C47.3906 37.0781 45.8438 37.5781 44.125 38.5781C42.4062 39.5469 40.6875 40.9062 38.9688 42.6562C37.25 44.375 35.625 46.4062 34.0938 48.75C32.5938 51.0938 31.375 53.6094 30.4375 56.2969ZM87.1562 56.25C87.2812 56.2812 87.4062 56.2969 87.5312 56.2969C87.6562 56.2969 87.7969 56.2969 87.9531 56.2969C88.8281 56.2969 89.625 56.2188 90.3438 56.0625C91.0625 55.875 91.7188 55.5938 92.3125 55.2188C92.9375 54.8438 93.5312 54.3594 94.0938 53.7656C94.6562 53.1406 95.2031 52.3906 95.7344 51.5156L97.4219 52.8281C95.9219 54.9531 94.375 56.4375 92.7812 57.2812C91.1875 58.125 89.5 58.5469 87.7188 58.5469C87.0625 58.5469 86.4844 58.4844 85.9844 58.3594C84.6406 60.6094 83.2031 62.5312 81.6719 64.125C80.1406 65.6875 78.5781 66.9688 76.9844 67.9688C75.3906 68.9688 73.8125 69.6875 72.25 70.125C70.6875 70.5938 69.2344 70.8281 67.8906 70.8281C66.5156 70.8281 65.2344 70.5781 64.0469 70.0781C62.8906 69.6094 61.8906 68.9219 61.0469 68.0156C60.2031 67.1094 59.5469 66.0312 59.0781 64.7812C58.6094 63.5312 58.375 62.125 58.375 60.5625C58.375 59 58.625 57.4062 59.125 55.7812C59.625 54.1562 60.2969 52.5469 61.1406 50.9531C62.0156 49.3594 63.0312 47.8281 64.1875 46.3594C65.3438 44.8594 66.5938 43.4688 67.9375 42.1875C69.2812 40.9062 70.6719 39.75 72.1094 38.7188C73.5469 37.6875 74.9844 36.8438 76.4219 36.1875L77.9219 38.1562C76.2656 39.3438 74.5781 40.8438 72.8594 42.6562C71.1719 44.4688 69.625 46.4531 68.2188 48.6094C66.8438 50.7656 65.7031 53.0156 64.7969 55.3594C63.9219 57.6719 63.4844 59.9219 63.4844 62.1094C63.4844 64.0781 63.9219 65.6094 64.7969 66.7031C65.6719 67.7656 67 68.2969 68.7812 68.2969C70.1562 68.2969 71.5156 68.0156 72.8594 67.4531C74.2031 66.8906 75.5156 66.125 76.7969 65.1562C78.0781 64.1875 79.3125 63.0469 80.5 61.7344C81.6875 60.3906 82.8125 58.9688 83.875 57.4688C82.9688 56.9375 82.1719 56.2344 81.4844 55.3594C80.7969 54.4531 80.2188 53.4375 79.75 52.3125C79.2812 51.1562 78.9219 49.9219 78.6719 48.6094C78.4531 47.2969 78.3438 45.9531 78.3438 44.5781C78.3438 43.2031 78.5156 41.9062 78.8594 40.6875C79.2031 39.4688 79.6719 38.4062 80.2656 37.5C80.8906 36.5625 81.6094 35.8281 82.4219 35.2969C83.2344 34.7656 84.125 34.5 85.0938 34.5C85.9688 34.5 86.75 34.7344 87.4375 35.2031C88.125 35.6406 88.7031 36.2656 89.1719 37.0781C89.6406 37.8594 90 38.7969 90.25 39.8906C90.5 40.9844 90.625 42.1562 90.625 43.4062C90.625 44.3438 90.5469 45.375 90.3906 46.5C90.2344 47.625 90 48.7656 89.6875 49.9219C89.4062 51.0469 89.0469 52.1719 88.6094 53.2969C88.2031 54.3906 87.7188 55.375 87.1562 56.25ZM80.7812 44.5781C80.7812 45.4844 80.8594 46.4688 81.0156 47.5312C81.1719 48.5938 81.4219 49.625 81.7656 50.625C82.1094 51.625 82.5469 52.5625 83.0781 53.4375C83.6094 54.2812 84.2656 54.9531 85.0469 55.4531C85.6094 54.3594 86.0781 53.25 86.4531 52.125C86.8594 50.9688 87.1875 49.8594 87.4375 48.7969C87.7188 47.7344 87.9062 46.75 88 45.8438C88.125 44.9062 88.1875 44.0938 88.1875 43.4062C88.1875 42.4688 88.1094 41.6094 87.9531 40.8281C87.7969 40.0469 87.5781 39.375 87.2969 38.8125C87.0469 38.2188 86.7188 37.7656 86.3125 37.4531C85.9375 37.1094 85.5156 36.9375 85.0469 36.9375C84.4219 36.9375 83.8438 37.1562 83.3125 37.5938C82.7812 38 82.3281 38.5625 81.9531 39.2812C81.5781 39.9688 81.2812 40.7812 81.0625 41.7188C80.875 42.625 80.7812 43.5781 80.7812 44.5781ZM134.922 44.6719C134.922 46.0156 134.688 47.3906 134.219 48.7969C133.75 50.1719 133.156 51.5625 132.438 52.9688C131.719 54.3438 130.953 55.7031 130.141 57.0469C129.328 58.3906 128.562 59.6875 127.844 60.9375C127.125 62.1875 126.531 63.3906 126.062 64.5469C125.594 65.6719 125.359 66.7031 125.359 67.6406C125.359 68.3594 125.516 68.8438 125.828 69.0938C126.141 69.3438 126.484 69.4688 126.859 69.4688C128.047 69.4688 129.375 68.8906 130.844 67.7344C132.312 66.5469 133.797 65.0625 135.297 63.2812C136.828 61.5 138.344 59.5625 139.844 57.4688C141.344 55.375 142.703 53.3906 143.922 51.5156L145.609 52.8281C145.359 53.2031 144.906 53.9531 144.25 55.0781C143.594 56.1719 142.781 57.4375 141.812 58.875C140.844 60.2812 139.75 61.7656 138.531 63.3281C137.344 64.8594 136.062 66.2812 134.688 67.5938C133.312 68.875 131.891 69.9375 130.422 70.7812C128.984 71.625 127.531 72.0469 126.062 72.0469C125.219 72.0469 124.453 71.9062 123.766 71.625C123.078 71.3438 122.484 70.9531 121.984 70.4531C121.516 69.9531 121.141 69.375 120.859 68.7188C120.578 68.0312 120.438 67.3125 120.438 66.5625C120.438 65.3438 120.703 64.0312 121.234 62.625C121.797 61.1875 122.484 59.7188 123.297 58.2188C124.109 56.7188 125 55.2188 125.969 53.7188C126.938 52.1875 127.828 50.7344 128.641 49.3594C129.453 47.9844 130.125 46.7188 130.656 45.5625C131.219 44.375 131.5 43.3594 131.5 42.5156C131.5 41.5469 131.234 40.7344 130.703 40.0781C130.203 39.4219 129.484 39.0938 128.547 39.0938C127.547 39.0938 126.391 39.5156 125.078 40.3594C123.766 41.1719 122.297 42.375 120.672 43.9688C119.047 45.5625 117.266 47.5312 115.328 49.875C113.422 52.1875 111.344 54.8281 109.094 57.7969C107.812 59.5156 106.562 61.1719 105.344 62.7656C104.812 63.4531 104.281 64.1562 103.75 64.875C103.219 65.5938 102.688 66.3125 102.156 67.0312C101.625 67.7188 101.125 68.375 100.656 69C100.188 69.6562 99.7656 70.2188 99.3906 70.6875L95.2656 69L100.75 61.4531C101.531 60.3906 102.328 59.25 103.141 58.0312C103.953 56.8125 104.75 55.5625 105.531 54.2812C106.344 52.9688 107.109 51.6562 107.828 50.3438C108.547 49.0312 109.219 47.75 109.844 46.5C110.75 44.625 111.375 43.0781 111.719 41.8594C112.062 40.6094 112.234 39.6094 112.234 38.8594C112.234 38.0156 112.078 37.4688 111.766 37.2188C111.453 36.9375 111.016 36.7969 110.453 36.7969C109.859 36.7969 109.172 37.1094 108.391 37.7344C107.641 38.3281 106.859 39.1094 106.047 40.0781C105.234 41.0156 104.406 42.0938 103.562 43.3125C102.75 44.5 101.969 45.6875 101.219 46.875C100.469 48.0625 99.7656 49.1875 99.1094 50.25C98.4531 51.3125 97.9062 52.1719 97.4688 52.8281L95.7812 51.5156C97.375 49.0156 98.8125 46.7344 100.094 44.6719C101.406 42.5781 102.656 40.7812 103.844 39.2812C105.062 37.7812 106.234 36.625 107.359 35.8125C108.516 34.9688 109.734 34.5469 111.016 34.5469C111.703 34.5469 112.359 34.6875 112.984 34.9688C113.641 35.25 114.203 35.6719 114.672 36.2344C115.172 36.7656 115.562 37.4219 115.844 38.2031C116.125 38.9844 116.266 39.8906 116.266 40.9219C116.266 41.7344 116.172 42.5781 115.984 43.4531C117.359 42.1094 118.641 41 119.828 40.125C121.016 39.25 122.109 38.5625 123.109 38.0625C124.109 37.5312 125.031 37.1562 125.875 36.9375C126.719 36.7188 127.484 36.6094 128.172 36.6094C128.766 36.6094 129.453 36.7188 130.234 36.9375C131.016 37.1562 131.75 37.5625 132.438 38.1562C133.125 38.75 133.703 39.5781 134.172 40.6406C134.672 41.6719 134.922 43.0156 134.922 44.6719ZM181.234 37.8281C180.828 38.6406 180.25 39.7031 179.5 41.0156C178.781 42.3281 178 43.7812 177.156 45.375C176.312 46.9375 175.453 48.5781 174.578 50.2969C173.734 52.0156 172.953 53.7031 172.234 55.3594C171.547 56.9844 170.969 58.5312 170.5 60C170.062 61.4375 169.844 62.6562 169.844 63.6562C169.844 64.6562 170.031 65.3125 170.406 65.625C170.812 65.9062 171.328 66.0469 171.953 66.0469C172.859 66.0469 173.781 65.7812 174.719 65.25C175.688 64.7188 176.625 64.0312 177.531 63.1875C178.469 62.3438 179.375 61.3906 180.25 60.3281C181.125 59.2656 181.938 58.2031 182.688 57.1406C183.469 56.0469 184.172 55.0156 184.797 54.0469C185.422 53.0469 185.953 52.2031 186.391 51.5156L188.078 52.8281C187.547 53.8281 186.922 54.9062 186.203 56.0625C185.484 57.2188 184.688 58.3906 183.812 59.5781C182.969 60.7344 182.047 61.8594 181.047 62.9531C180.047 64.0469 178.984 65.0156 177.859 65.8594C176.766 66.7031 175.609 67.375 174.391 67.875C173.172 68.375 171.922 68.625 170.641 68.625C168.766 68.625 167.391 68.0625 166.516 66.9375C165.641 65.8125 165.203 64.3594 165.203 62.5781C165.203 62.4531 165.203 62.1875 165.203 61.7812C165.234 61.3438 165.281 61 165.344 60.75C163.781 62.7188 162.281 64.3438 160.844 65.625C159.438 66.9062 158.062 67.9219 156.719 68.6719C155.406 69.4219 154.125 69.9375 152.875 70.2188C151.656 70.5312 150.484 70.6875 149.359 70.6875C148.172 70.6875 147.047 70.4844 145.984 70.0781C144.953 69.7031 144.047 69.1406 143.266 68.3906C142.453 67.6406 141.828 66.7188 141.391 65.625C140.922 64.5312 140.688 63.2656 140.688 61.8281C140.688 60.0469 141.094 58.0156 141.906 55.7344C142.688 53.4219 144.094 50.9375 146.125 48.2812C147.844 46 149.625 44.0781 151.469 42.5156C153.344 40.9531 155.172 39.7031 156.953 38.7656C158.766 37.7969 160.484 37.1094 162.109 36.7031C163.734 36.2969 165.188 36.0938 166.469 36.0938C169.344 36.0938 171.516 36.5781 172.984 37.5469C174.453 38.4844 175.344 39.9375 175.656 41.9062C176.281 41.125 176.938 40.3438 177.625 39.5625C178.312 38.7812 179.016 37.9844 179.734 37.1719L181.234 37.8281ZM166.844 55.6406C167.25 54.9844 167.75 54.1562 168.344 53.1562C168.938 52.125 169.562 51.0781 170.219 50.0156C170.875 48.9219 171.516 47.875 172.141 46.875C172.766 45.875 173.312 45.0312 173.781 44.3438C173.781 44.0625 173.734 43.6094 173.641 42.9844C173.578 42.3594 173.375 41.7344 173.031 41.1094C172.688 40.4531 172.141 39.8906 171.391 39.4219C170.641 38.9531 169.594 38.7188 168.25 38.7188C167.281 38.7188 166.188 38.875 164.969 39.1875C163.781 39.4688 162.5 39.9688 161.125 40.6875C159.781 41.375 158.391 42.2969 156.953 43.4531C155.516 44.6094 154.078 46.0469 152.641 47.7656C150.484 50.3594 148.812 52.9688 147.625 55.5938C146.469 58.1875 145.891 60.5312 145.891 62.625C145.891 64.4062 146.297 65.7812 147.109 66.75C147.922 67.7188 149.078 68.2031 150.578 68.2031C152.297 68.2031 153.906 67.8281 155.406 67.0781C156.906 66.2969 158.312 65.2969 159.625 64.0781C160.938 62.8594 162.188 61.5156 163.375 60.0469C164.562 58.5469 165.719 57.0781 166.844 55.6406ZM216.016 52.8281C215.547 53.5156 214.984 54.4531 214.328 55.6406C213.703 56.7969 212.969 58.0625 212.125 59.4375C211.281 60.7812 210.344 62.1562 209.312 63.5625C208.312 64.9688 207.203 66.2344 205.984 67.3594C204.797 68.4844 203.5 69.4062 202.094 70.125C200.688 70.8438 199.188 71.2031 197.594 71.2031C196.719 71.2031 195.891 71.0625 195.109 70.7812C194.328 70.5312 193.641 70.125 193.047 69.5625C192.453 69 191.984 68.3125 191.641 67.5C191.297 66.6562 191.125 65.6719 191.125 64.5469C191.125 63.0156 191.422 61.4219 192.016 59.7656C192.641 58.0781 193.359 56.4531 194.172 54.8906C194.984 53.3281 195.797 51.9062 196.609 50.625C197.422 49.3125 198.016 48.2656 198.391 47.4844C198.766 46.7031 198.953 46.0312 198.953 45.4688C198.953 45.0625 198.812 44.7031 198.531 44.3906C198.281 44.0781 197.953 43.7812 197.547 43.5C197.172 43.1875 196.766 42.875 196.328 42.5625C195.922 42.2188 195.578 41.8125 195.297 41.3438C194.516 42.5938 193.719 43.8594 192.906 45.1406C192.188 46.2344 191.406 47.4688 190.562 48.8438C189.719 50.1875 188.906 51.5156 188.125 52.8281L186.438 51.5156L196.469 35.8125L197.828 36.5156C197.766 36.7031 197.656 37 197.5 37.4062C197.375 37.8125 197.312 38.25 197.312 38.7188C197.312 39.0625 197.359 39.4062 197.453 39.75C197.578 40.0625 197.812 40.3594 198.156 40.6406C199.406 41.7656 200.391 42.6406 201.109 43.2656C201.828 43.8594 202.344 44.3438 202.656 44.7188C203 45.0625 203.203 45.3594 203.266 45.6094C203.359 45.8281 203.406 46.125 203.406 46.5C203.406 46.875 203.344 47.3281 203.219 47.8594C203.094 48.3906 202.875 49.0312 202.562 49.7812C202.281 50.5312 201.875 51.4219 201.344 52.4531C200.844 53.4531 200.203 54.625 199.422 55.9688C198.953 56.7812 198.484 57.6094 198.016 58.4531C197.578 59.2656 197.172 60.0938 196.797 60.9375C196.453 61.7812 196.172 62.625 195.953 63.4688C195.734 64.3125 195.625 65.125 195.625 65.9062C195.625 66.5 195.703 66.9844 195.859 67.3594C196.047 67.7031 196.281 67.9688 196.562 68.1562C196.844 68.3438 197.141 68.4688 197.453 68.5312C197.797 68.5938 198.125 68.625 198.438 68.625C199.469 68.625 200.484 68.3281 201.484 67.7344C202.516 67.1094 203.516 66.3125 204.484 65.3438C205.484 64.375 206.438 63.2812 207.344 62.0625C208.281 60.8125 209.172 59.5469 210.016 58.2656C210.859 56.9844 211.641 55.7656 212.359 54.6094C213.078 53.4219 213.719 52.3906 214.281 51.5156L216.016 52.8281ZM266.547 7.40625C266.203 7.90625 265.641 8.73437 264.859 9.89062C264.078 11.0469 263.172 12.4219 262.141 14.0156C261.109 15.6094 259.984 17.375 258.766 19.3125C257.578 21.25 256.375 23.25 255.156 25.3125C253.969 27.375 252.797 29.4688 251.641 31.5938C250.516 33.6875 249.516 35.7031 248.641 37.6406C247.266 40.6406 246.125 43.3281 245.219 45.7031C244.344 48.0469 243.641 50.1406 243.109 51.9844C242.609 53.8281 242.25 55.4375 242.031 56.8125C241.844 58.1562 241.75 59.3125 241.75 60.2812C241.75 62.0625 242.016 63.2969 242.547 63.9844C243.109 64.6719 243.859 65.0156 244.797 65.0156C245.766 65.0156 246.688 64.7656 247.562 64.2656C248.469 63.7656 249.328 63.125 250.141 62.3438C250.984 61.5625 251.766 60.6719 252.484 59.6719C253.234 58.6719 253.922 57.6719 254.547 56.6719C255.203 55.6719 255.797 54.7188 256.328 53.8125C256.859 52.9062 257.328 52.1406 257.734 51.5156L259.422 52.8281C259.078 53.3906 258.641 54.1406 258.109 55.0781C257.609 55.9844 257.031 56.9844 256.375 58.0781C255.719 59.1719 254.969 60.2812 254.125 61.4062C253.281 62.5 252.344 63.5 251.312 64.4062C250.312 65.3125 249.188 66.0625 247.938 66.6562C246.719 67.2188 245.391 67.5 243.953 67.5C243.266 67.5 242.531 67.4062 241.75 67.2188C241 67.0312 240.297 66.7031 239.641 66.2344C238.984 65.7656 238.406 65.125 237.906 64.3125C237.406 63.4688 237.078 62.4062 236.922 61.125C234.578 63.6562 232.297 65.5781 230.078 66.8906C227.859 68.1719 225.766 68.8125 223.797 68.8125C222.797 68.8125 221.688 68.6406 220.469 68.2969C219.281 67.9531 218.156 67.3594 217.094 66.5156C216.031 65.6719 215.141 64.5625 214.422 63.1875C213.703 61.7812 213.344 60.0469 213.344 57.9844C213.344 55.6719 213.703 53.4688 214.422 51.375C215.141 49.2812 216.109 47.3438 217.328 45.5625C218.547 43.75 219.938 42.125 221.5 40.6875C223.094 39.2188 224.75 37.9844 226.469 36.9844C228.188 35.9531 229.906 35.1562 231.625 34.5938C233.375 34.0312 235.016 33.75 236.547 33.75C238.578 33.75 240.172 34 241.328 34.5C242.484 35 243.359 35.5 243.953 36C244.391 35.125 244.984 34.0156 245.734 32.6719C246.484 31.2969 247.359 29.7812 248.359 28.125C249.359 26.4375 250.469 24.6562 251.688 22.7812C252.906 20.875 254.203 18.9688 255.578 17.0625C256.953 15.125 258.391 13.2188 259.891 11.3438C261.422 9.46875 262.969 7.71875 264.531 6.09375L266.547 7.40625ZM236.875 57.6094C237.031 55.2969 237.562 52.5781 238.469 49.4531C239.406 46.2969 240.828 42.6719 242.734 38.5781C242.297 37.9219 241.672 37.4219 240.859 37.0781C240.078 36.7031 239.188 36.5156 238.188 36.5156C236.656 36.5156 235.094 36.8281 233.5 37.4531C231.938 38.0781 230.422 38.9219 228.953 39.9844C227.516 41.0469 226.156 42.3125 224.875 43.7812C223.594 45.2188 222.469 46.7656 221.5 48.4219C220.562 50.0781 219.812 51.8125 219.25 53.625C218.719 55.4062 218.453 57.1719 218.453 58.9219C218.453 61.2656 218.938 63.0938 219.906 64.4062C220.906 65.7188 222.234 66.375 223.891 66.375C224.672 66.375 225.531 66.2188 226.469 65.9062C227.406 65.5938 228.422 65.0938 229.516 64.4062C230.641 63.6875 231.812 62.7812 233.031 61.6875C234.25 60.5625 235.531 59.2031 236.875 57.6094ZM284.219 56.25C284.344 56.2812 284.469 56.2969 284.594 56.2969C284.719 56.2969 284.859 56.2969 285.016 56.2969C285.891 56.2969 286.688 56.2188 287.406 56.0625C288.125 55.875 288.781 55.5938 289.375 55.2188C290 54.8438 290.594 54.3594 291.156 53.7656C291.719 53.1406 292.266 52.3906 292.797 51.5156L294.484 52.8281C292.984 54.9531 291.438 56.4375 289.844 57.2812C288.25 58.125 286.562 58.5469 284.781 58.5469C284.125 58.5469 283.547 58.4844 283.047 58.3594C281.703 60.6094 280.266 62.5312 278.734 64.125C277.203 65.6875 275.641 66.9688 274.047 67.9688C272.453 68.9688 270.875 69.6875 269.312 70.125C267.75 70.5938 266.297 70.8281 264.953 70.8281C263.578 70.8281 262.297 70.5781 261.109 70.0781C259.953 69.6094 258.953 68.9219 258.109 68.0156C257.266 67.1094 256.609 66.0312 256.141 64.7812C255.672 63.5312 255.438 62.125 255.438 60.5625C255.438 59 255.688 57.4062 256.188 55.7812C256.688 54.1562 257.359 52.5469 258.203 50.9531C259.078 49.3594 260.094 47.8281 261.25 46.3594C262.406 44.8594 263.656 43.4688 265 42.1875C266.344 40.9062 267.734 39.75 269.172 38.7188C270.609 37.6875 272.047 36.8438 273.484 36.1875L274.984 38.1562C273.328 39.3438 271.641 40.8438 269.922 42.6562C268.234 44.4688 266.688 46.4531 265.281 48.6094C263.906 50.7656 262.766 53.0156 261.859 55.3594C260.984 57.6719 260.547 59.9219 260.547 62.1094C260.547 64.0781 260.984 65.6094 261.859 66.7031C262.734 67.7656 264.062 68.2969 265.844 68.2969C267.219 68.2969 268.578 68.0156 269.922 67.4531C271.266 66.8906 272.578 66.125 273.859 65.1562C275.141 64.1875 276.375 63.0469 277.562 61.7344C278.75 60.3906 279.875 58.9688 280.938 57.4688C280.031 56.9375 279.234 56.2344 278.547 55.3594C277.859 54.4531 277.281 53.4375 276.812 52.3125C276.344 51.1562 275.984 49.9219 275.734 48.6094C275.516 47.2969 275.406 45.9531 275.406 44.5781C275.406 43.2031 275.578 41.9062 275.922 40.6875C276.266 39.4688 276.734 38.4062 277.328 37.5C277.953 36.5625 278.672 35.8281 279.484 35.2969C280.297 34.7656 281.188 34.5 282.156 34.5C283.031 34.5 283.812 34.7344 284.5 35.2031C285.188 35.6406 285.766 36.2656 286.234 37.0781C286.703 37.8594 287.062 38.7969 287.312 39.8906C287.562 40.9844 287.688 42.1562 287.688 43.4062C287.688 44.3438 287.609 45.375 287.453 46.5C287.297 47.625 287.062 48.7656 286.75 49.9219C286.469 51.0469 286.109 52.1719 285.672 53.2969C285.266 54.3906 284.781 55.375 284.219 56.25ZM277.844 44.5781C277.844 45.4844 277.922 46.4688 278.078 47.5312C278.234 48.5938 278.484 49.625 278.828 50.625C279.172 51.625 279.609 52.5625 280.141 53.4375C280.672 54.2812 281.328 54.9531 282.109 55.4531C282.672 54.3594 283.141 53.25 283.516 52.125C283.922 50.9688 284.25 49.8594 284.5 48.7969C284.781 47.7344 284.969 46.75 285.062 45.8438C285.188 44.9062 285.25 44.0938 285.25 43.4062C285.25 42.4688 285.172 41.6094 285.016 40.8281C284.859 40.0469 284.641 39.375 284.359 38.8125C284.109 38.2188 283.781 37.7656 283.375 37.4531C283 37.1094 282.578 36.9375 282.109 36.9375C281.484 36.9375 280.906 37.1562 280.375 37.5938C279.844 38 279.391 38.5625 279.016 39.2812C278.641 39.9688 278.344 40.7812 278.125 41.7188C277.938 42.625 277.844 43.5781 277.844 44.5781Z" fill="#5484FF"/>
</svg>
