<svg width="104" height="27" viewBox="0 0 104 27" fill="none" xmlns="http://www.w3.org/2000/svg">
<path d="M21.8345 19.448C21.8345 20.984 21.4145 22.232 20.5745 23.192C19.7585 24.152 18.6545 24.86 17.2625 25.316C15.8705 25.772 14.3345 26 12.6545 26H0.0905314V0.439999H14.9225C16.1225 0.439999 17.1545 0.763999 18.0185 1.412C18.9065 2.036 19.5785 2.852 20.0345 3.86C20.5145 4.868 20.7545 5.912 20.7545 6.992C20.7545 8.168 20.4425 9.308 19.8185 10.412C19.2185 11.516 18.3065 12.344 17.0825 12.896C18.5465 13.328 19.6985 14.084 20.5385 15.164C21.4025 16.244 21.8345 17.672 21.8345 19.448ZM7.11053 6.416V10.34H11.8985C12.3785 10.34 12.8105 10.208 13.1945 9.944C13.6025 9.68 13.8065 9.152 13.8065 8.36C13.8065 7.664 13.6385 7.172 13.3025 6.884C12.9665 6.572 12.5705 6.416 12.1145 6.416H7.11053ZM14.7065 18.008C14.7065 17.384 14.5385 16.868 14.2025 16.46C13.8665 16.028 13.4345 15.812 12.9065 15.812H7.11053V20.096H12.6545C13.2305 20.096 13.7105 19.916 14.0945 19.556C14.5025 19.196 14.7065 18.68 14.7065 18.008ZM36.466 26.216C34.522 26.216 32.758 25.856 31.174 25.136C29.59 24.392 28.222 23.408 27.07 22.184C25.942 20.936 25.066 19.544 24.442 18.008C23.842 16.448 23.542 14.84 23.542 13.184C23.542 11.48 23.866 9.86 24.514 8.324C25.162 6.788 26.062 5.42 27.214 4.22C28.39 2.996 29.77 2.036 31.354 1.34C32.962 0.643998 34.714 0.295998 36.61 0.295998C38.554 0.295998 40.318 0.667999 41.902 1.412C43.486 2.132 44.842 3.116 45.97 4.364C47.098 5.612 47.962 7.016 48.562 8.576C49.186 10.112 49.498 11.696 49.498 13.328C49.498 15.008 49.174 16.616 48.526 18.152C47.902 19.688 47.002 21.068 45.826 22.292C44.674 23.492 43.306 24.452 41.722 25.172C40.138 25.868 38.386 26.216 36.466 26.216ZM30.67 13.256C30.67 14.384 30.874 15.464 31.282 16.496C31.714 17.528 32.362 18.368 33.226 19.016C34.114 19.664 35.218 19.988 36.538 19.988C37.906 19.988 39.01 19.652 39.85 18.98C40.714 18.308 41.35 17.456 41.758 16.424C42.166 15.368 42.37 14.288 42.37 13.184C42.37 12.032 42.154 10.952 41.722 9.944C41.29 8.936 40.642 8.12 39.778 7.496C38.914 6.848 37.822 6.524 36.502 6.524C35.158 6.524 34.054 6.86 33.19 7.532C32.326 8.18 31.69 9.02 31.282 10.052C30.874 11.06 30.67 12.128 30.67 13.256ZM50.8626 20.78L62.4546 6.56H51.4026V0.439999H70.9146V5.66L60.0426 19.88H71.1306V26H50.8626V20.78ZM73.2572 20.78L84.8492 6.56H73.7972V0.439999H93.3092V5.66L82.4372 19.88H93.5252V26H73.2572V20.78ZM96.8757 26V0.439999H103.896V26H96.8757Z" fill="white"/>
</svg>
