<svg width="150" height="150" viewBox="0 0 150 150" fill="none" xmlns="http://www.w3.org/2000/svg">
<path d="M75 87.5C81.9036 87.5 87.5 81.9036 87.5 75C87.5 68.0964 81.9036 62.5 75 62.5C68.0965 62.5 62.5 68.0964 62.5 75C62.5 81.9036 68.0965 87.5 75 87.5Z" fill="white"/>
<path d="M37.5543 100L34.5946 99.2893C12.6105 94.0754 0 85.2097 0 75C0 64.7833 12.618 55.9246 34.5946 50.7107L37.5543 50.007L38.386 52.7582C40.608 59.9613 43.4548 66.9812 46.8979 73.7475L47.5348 75L46.8979 76.2525C43.4512 83.0284 40.5964 90.0507 38.386 97.2559L37.5543 100ZM33.2309 57.1137C16.5293 61.5325 6.27154 68.2733 6.27154 75C6.27154 81.7126 16.5218 88.4605 33.2309 92.8722C35.2765 86.7647 37.7491 80.7909 40.6114 75C37.7284 69.1995 35.2627 63.224 33.2309 57.1137ZM112.446 100L111.621 97.2418C109.394 90.0373 106.544 83.0153 103.102 76.2454L102.465 75L103.102 73.7405C106.549 66.9786 109.389 59.9493 111.621 52.7442L112.446 50L115.405 50.7036C137.397 55.9175 150 64.7762 150 75C150 85.2167 137.389 94.0754 115.405 99.2893L112.446 100ZM109.374 75C112.371 81.0934 114.866 87.0884 116.769 92.8722C133.478 88.4605 143.736 81.7126 143.736 75C143.736 68.2733 133.486 61.5395 116.769 57.1137C114.726 63.2221 112.255 69.1972 109.374 75Z" fill="white"/>
<path d="M29.7755 51.2984L28.8839 48.1508C22.189 24.6812 24.2153 7.86999 34.4522 2.01066C44.4621 -3.75988 60.5672 3.05986 77.4341 20.2908L79.736 22.6474L77.4341 24.996C71.4434 31.1998 65.9679 37.8774 61.0616 44.9629L60.1457 46.2704L58.5571 46.3995C49.9298 47.0742 41.3721 48.4481 32.969 50.5075L29.7755 51.2984ZM42.5979 6.67552C40.7824 6.67552 39.1775 7.07099 37.824 7.84578C31.1129 11.6955 29.9295 25.1009 34.5495 43.1954C41.7712 41.6055 49.0578 40.4675 56.4011 39.8299C60.6524 33.8258 65.2902 28.1024 70.2853 22.6959C59.7242 12.4703 49.7548 6.67552 42.5979 6.67552ZM107.415 143.748C97.7863 143.748 85.4177 136.517 72.5791 123.394L70.2853 121.045L72.5791 118.705C78.5708 112.491 84.0488 105.806 88.9597 98.7137L89.8675 97.4224L91.4399 97.2691C100.07 96.6063 108.631 95.2378 117.036 93.1772L120.238 92.3702L121.137 95.5258C127.8 118.979 125.782 135.815 115.561 141.674C113.079 143.075 110.267 143.791 107.415 143.748ZM79.736 120.989C90.289 131.214 100.266 137.017 107.415 137.017C109.239 137.017 110.844 136.614 112.189 135.847C118.908 131.989 120.1 118.56 115.464 100.465C108.25 102.063 100.955 103.209 93.5959 103.847C89.3626 109.86 84.7324 115.587 79.736 120.989Z" fill="white"/>
<path d="M120.226 51.2957L117.024 50.4966C108.621 48.4307 100.062 47.0567 91.432 46.3885L89.8598 46.2513L88.9522 44.9438C84.0488 37.8542 78.5711 31.1761 72.574 24.9763L70.2805 22.6277L72.574 20.2871C89.4303 3.06368 105.525 -3.75627 115.55 2.00639C125.777 7.87397 127.811 24.6858 121.125 48.148L120.226 51.2957ZM93.5877 39.8268C101.319 40.5129 108.645 41.667 115.452 43.1924C120.08 25.0974 118.897 11.6915 112.178 7.83361C105.501 3.98377 92.9313 9.87556 79.7298 22.6922C84.7219 28.0998 89.3574 33.814 93.5877 39.8268ZM42.5972 143.748C39.7457 143.789 36.9346 143.073 34.4527 141.674C24.2173 135.815 22.1913 118.987 28.8771 95.5245L29.7523 92.3687L32.9534 93.1758C40.7657 95.137 49.3722 96.5172 58.5459 97.2678L60.1181 97.4211L61.0338 98.7125C65.9287 105.799 71.407 112.49 77.404 118.704L79.7055 121.045L77.404 123.393C64.5753 136.525 52.2086 143.748 42.5972 143.748ZM34.5499 100.472C29.9306 118.567 31.1138 131.997 37.8239 135.855C44.5098 139.648 57.0386 133.797 70.2805 120.988C65.2881 115.58 60.6511 109.856 56.3984 103.854C49.0488 103.206 41.7501 102.077 34.5499 100.472Z" fill="white"/>
<path d="M75.0068 100C70.3285 100 65.5276 99.7997 60.7063 99.3923L59.3716 99.2748L58.6021 98.156C55.8833 94.1911 53.3253 90.1153 50.9343 85.9388C48.561 81.751 46.3551 77.468 44.322 73.1L43.75 71.8776L44.322 70.6414C46.3582 66.2766 48.5577 61.9947 50.9343 57.8095C53.2973 53.6933 55.8782 49.5772 58.6021 45.5853L59.3716 44.4803L60.7063 44.356C70.2188 43.548 79.7812 43.548 89.2937 44.356L90.6148 44.4873L91.3843 45.5923C96.8307 53.5259 101.614 61.907 105.685 70.6483L106.25 71.8845L105.685 73.1069C101.625 81.8542 96.8414 90.2362 91.3843 98.1629L90.6148 99.2817L89.2937 99.3992C84.486 99.7928 79.6783 100 75.0068 100ZM62.5177 93.7567C70.9278 94.399 79.0859 94.399 87.4891 93.7567C92.1803 86.7897 96.3504 79.4762 99.9646 71.8776C96.3632 64.2721 92.1925 56.9577 87.4891 49.9985C79.1776 49.3493 70.8292 49.3493 62.5177 49.9985C57.8104 56.9551 53.6395 64.2699 50.0422 71.8776C53.6642 79.472 57.834 86.785 62.5177 93.7567Z" fill="white"/>
</svg>
