<svg width="70" height="70" viewBox="0 0 70 70" fill="none" xmlns="http://www.w3.org/2000/svg">
<path d="M33.0113 52.9209C32.9784 53.0084 32.9456 53.0784 33.0113 52.9209V52.9209ZM60.2561 40.2344C58.0557 40.2344 55.8859 40.9052 53.9129 42.203C53.2677 40.4678 52.6006 38.9512 52.4912 37.8138C52.36 36.4868 52.2178 35.6994 52.3709 34.1245C52.524 32.5496 53.213 30.3186 53.2021 30.1582C53.1911 29.9978 53.049 29.1957 51.6382 29.1812C50.2274 29.1666 49.0134 29.5457 48.8713 30.0415C48.6216 30.9474 48.4278 31.8789 48.2916 32.8267C48.0401 34.5328 45.4722 40.6282 44.0177 43.8071C43.5365 42.5676 43.1318 41.4739 43.0443 40.599C42.9131 39.272 42.7709 38.4846 42.924 36.9097C43.0771 35.3348 43.7661 33.1038 43.7552 32.9434C43.7443 32.783 43.6021 31.9809 42.1935 31.9664C40.7849 31.9518 39.5687 32.3309 39.4266 32.8267C39.2844 33.3225 39.1313 34.4891 38.8469 35.6119C38.5626 36.7347 35.1395 46.8839 34.2449 49.5233C33.7856 50.8648 33.3918 51.9439 33.1075 52.673C33.0637 52.7897 33.0309 52.8626 33.0091 52.9209C33.0419 52.848 33.0637 52.7751 33.0637 52.8042C32.8231 53.4313 32.681 53.7812 32.681 53.7812V53.7958C32.4951 54.2625 32.2873 54.6853 32.1888 54.6853C32.1232 54.6853 31.981 53.4604 32.2216 51.7835C32.7357 48.2546 33.9496 42.7717 33.9387 42.5822C33.9277 42.4801 34.1683 41.5322 33.1403 41.0219C32.1451 40.5407 31.7842 41.3427 31.6967 41.3427C31.6092 41.3427 31.5436 41.6343 31.5436 41.6343C31.5436 41.6343 32.6482 35.4515 29.4219 35.4515C27.4096 35.4515 24.6099 38.3971 23.2341 41.0656C22.3701 41.6926 20.5 43.0488 18.5314 44.4924L16.2676 46.1548C16.2129 46.0819 16.1692 46.009 16.1145 45.9361C12.1992 40.3657 4.97245 36.4285 5.27867 28.9479C5.38803 26.221 6.0989 19.0612 19.1767 10.3702C29.8944 3.25412 38.462 5.20812 39.9384 9.5536C42.0601 15.751 35.356 27.2855 24.2271 28.9479C19.9838 29.5749 17.7549 27.3876 17.1972 26.571C16.6176 25.7106 16.5301 25.6669 16.3113 25.8273C15.9504 26.0898 16.1801 26.848 16.3113 27.3001C16.6394 28.4521 18.0065 30.4936 20.3359 31.5143C22.381 32.4038 27.3549 32.8996 33.3678 29.7936C40.1243 26.3231 45.3847 16.6551 43.8405 8.56202C42.27 0.337687 32.0423 -2.36001 22.3723 2.21878C16.6088 4.94565 10.3772 9.2328 5.89548 14.8178C0.569442 21.4672 -0.281411 27.2563 0.0685544 29.677C1.31531 38.2658 10.1935 43.8654 13.7456 48.0067L13.2535 48.3713C11.4709 49.5524 4.70341 54.277 3.00827 59.2641C1.09439 64.922 3.32542 68.9758 4.78871 69.53C9.36014 71.2215 14.0387 68.1738 16.5541 63.1721C19.0695 58.1705 18.7633 51.6377 17.604 48.6629C17.5931 48.6192 17.5712 48.59 17.5603 48.5463C18.8726 47.5098 20.196 46.4987 21.5302 45.5132C21.0927 47.088 20.7756 48.9837 20.6115 51.7252C20.4147 54.9332 21.4099 59.0891 22.7004 60.7223C23.2691 61.4369 23.9559 61.4515 24.3846 61.4515C25.8938 61.4515 26.5719 59.7891 27.3265 57.8059C28.2561 55.3853 29.0763 52.5709 29.0763 52.5709C29.0763 52.5709 28.0483 60.1828 30.859 60.1828C31.887 60.1828 32.915 58.4184 33.3743 57.5143V57.5289C33.3743 57.5289 33.3962 57.4705 33.4509 57.3539C33.5603 57.1351 33.6149 57.0039 33.6149 57.0039V56.9602C34.0305 56.0123 34.9382 53.8396 36.3053 50.2524C38.077 45.6153 39.77 39.8261 39.77 39.8261C39.934 41.0977 40.1615 42.3547 40.448 43.5883C40.7542 44.9736 41.3995 46.4902 41.9135 47.963C41.4979 48.7212 41.2464 49.1587 41.2464 49.1587C41.2464 49.1704 41.2508 49.1791 41.2573 49.1879C40.9292 49.7712 40.5574 50.3982 40.1746 51.0106C38.7769 53.2271 37.1124 55.7644 36.8937 56.4935C36.6312 57.3539 36.6968 57.9955 37.1999 58.4913C37.5717 58.8704 38.2279 58.9287 38.9169 58.8558C40.1746 58.7392 41.0605 58.3309 41.487 58.0684C42.2737 57.6926 43.0172 57.1723 43.6961 56.5227C45.0632 55.1811 45.8944 53.2563 45.8178 50.719C45.7741 49.3191 45.435 47.9192 45.0194 46.6068C45.1397 46.3735 45.271 46.1256 45.3913 45.8777C46.8145 43.0463 48.0968 40.0934 49.23 37.038C49.394 38.3096 49.6193 39.5666 49.908 40.8002C50.1705 41.9814 50.6845 43.2792 51.1548 44.5478C49.1206 46.7497 47.8629 49.3016 47.4276 50.9786C46.6184 54.0846 47.2527 55.4844 48.4447 55.8053C48.9806 55.9511 49.7462 55.6157 50.3149 55.2949C51.1592 54.9187 51.9553 54.3733 52.6749 53.6763C54.042 52.3347 55.3653 50.4536 55.2756 47.9017C55.2428 46.7497 55.0022 45.5977 54.6851 44.4895C56.4021 43.5271 58.6331 43.0021 61.4766 43.4396C67.566 44.3874 68.758 49.462 68.5284 51.5764C68.2987 53.6908 67.0192 54.872 66.5926 55.222C66.1661 55.5719 66.0349 55.7032 66.0677 55.9657C66.1224 56.3448 66.3192 56.3302 66.6801 56.2427C67.1832 56.1261 69.8736 54.522 69.9939 50.5994C70.1689 45.6415 66.5926 40.1878 60.2604 40.2315L60.2561 40.2344ZM13.3191 61.3348C11.3068 64.2658 8.48741 65.3741 7.27347 64.4408C5.97204 63.4317 6.48605 59.1183 8.96643 55.9948C10.4757 54.0991 12.4223 52.3493 13.7128 51.2702C14.0081 51.0369 14.4346 50.6869 14.9596 50.264C15.0022 50.2276 15.046 50.1935 15.0908 50.162C15.1893 50.0745 15.2986 50.0016 15.408 49.9141C16.3135 54.347 15.4408 58.2551 13.3191 61.3319V61.3348ZM28.0133 48.0067C27.3134 50.2961 25.8391 56.129 24.9402 55.8228C24.1746 55.5603 23.7044 51.1127 24.7871 46.7381C25.3339 44.5362 26.4931 41.9114 27.1821 40.8906C28.2867 39.2428 29.5007 38.7179 29.785 39.3741C30.1678 40.2344 28.4508 46.5777 28.0133 48.0067ZM40.1527 55.7353C39.8575 55.9394 39.584 56.0706 39.4528 55.9686C39.3544 55.8957 39.5731 55.6186 39.5731 55.6186C39.5731 55.6186 41.0933 53.4459 41.6948 52.4543C42.0447 51.871 42.4494 51.1856 42.8868 50.4274C42.8868 50.5003 42.8978 50.5732 42.8978 50.6607C42.8847 53.2709 41.0036 55.0353 40.1506 55.7353H40.1527ZM49.5143 52.8917C49.2956 52.6876 49.3284 52.0022 50.0611 49.8732C50.3455 49.0421 51.0017 47.6422 52.1391 46.3006C52.2681 46.8081 52.3381 47.3389 52.3468 47.8755C52.3359 51.1565 50.5751 52.3814 49.5143 52.8917Z" fill="white"/>
</svg>
